<svg width="51" height="49" viewBox="0 0 51 49" fill="none" xmlns="http://www.w3.org/2000/svg">
<g clip-path="url(#clip0_1_3041)">
<path d="M41.1564 33.7444C40.0994 40.3142 35.0092 45.5407 28.4968 46.8228C28.4647 46.8292 28.434 46.8356 28.4019 46.8419V49H22.5032V47.1012H0V41.0012H22.5032V39.1024H28.4019V40.5645C31.5973 39.566 34.0918 36.9853 34.9618 33.7444H41.1564Z" fill="#0098CB"/>
<path d="M50.9999 27.6444V33.7444H28.4019V35.6432H22.5032V33.4851C19.9523 33.0229 17.6128 31.9567 15.6384 30.4384C13.6115 28.8831 11.9703 26.8514 10.8826 24.5121C10.42 23.5186 10.0587 22.4703 9.80762 21.3798H16.2765C16.7326 22.5494 17.4091 23.6106 18.2547 24.5121C19.4001 25.738 20.8594 26.6701 22.5032 27.1835V25.7443H28.4019V27.6444H50.9999Z" fill="#99CC65"/>
<path d="M51 1.89881V7.99875H28.4019V9.89883H22.5032V8.45972C19.3079 9.45829 16.8133 12.0377 15.9434 15.2799H9.61035C10.6802 8.63211 15.8793 3.35963 22.5032 2.15803V0H28.4019V1.89881H51Z" fill="#99CC65"/>
<path d="M40.9591 27.6445H34.6287C34.1725 26.4748 33.4961 25.4137 32.6505 24.5122C31.505 23.2863 30.0457 22.3542 28.4019 21.8408V23.2799H22.5032V21.3799H0V15.2799H22.5032V13.3811H28.4019V15.5634C28.434 15.5698 28.4647 15.5762 28.4968 15.5825C31.0131 16.078 33.318 17.1621 35.2577 18.6855C37.2257 20.2293 38.8195 22.2226 39.8855 24.5122C40.3467 25.5056 40.7093 26.554 40.9591 27.6445Z" fill="#0098CB"/>
</g>
<defs>
<clipPath id="clip0_1_3041">
<rect width="51" height="49" fill="white"/>
</clipPath>
</defs>
</svg>
