<svg width="24" height="24" viewBox="0 0 24 24" fill="none" xmlns="http://www.w3.org/2000/svg">
<path opacity="0.5" d="M3.275 15.296C2.425 14.192 2 13.639 2 12C2 10.36 2.425 9.809 3.275 8.704C4.972 6.5 7.818 4 12 4C16.182 4 19.028 6.5 20.725 8.704C21.575 9.81 22 10.361 22 12C22 13.64 21.575 14.191 20.725 15.296C19.028 17.5 16.182 20 12 20C7.818 20 4.972 17.5 3.275 15.296Z" stroke="white" stroke-width="1.45946"/>
<path d="M15.0002 12.0001C15.0002 12.7957 14.6842 13.5588 14.1216 14.1214C13.559 14.684 12.7959 15.0001 12.0002 15.0001C11.2046 15.0001 10.4415 14.684 9.87892 14.1214C9.31631 13.5588 9.00024 12.7957 9.00024 12.0001C9.00024 11.2044 9.31631 10.4413 9.87892 9.87874C10.4415 9.31613 11.2046 9.00006 12.0002 9.00006C12.7959 9.00006 13.559 9.31613 14.1216 9.87874C14.6842 10.4413 15.0002 11.2044 15.0002 12.0001Z" stroke="white" stroke-width="1.45946"/>
</svg>
