<svg width="25" height="25" viewBox="0 0 25 25" fill="none" xmlns="http://www.w3.org/2000/svg">
<path opacity="0.5" d="M2.5 16.5C2.5 13.672 2.5 12.257 3.379 11.379C4.257 10.5 5.672 10.5 8.5 10.5H16.5C19.328 10.5 20.743 10.5 21.621 11.379C22.5 12.257 22.5 13.672 22.5 16.5C22.5 19.328 22.5 20.743 21.621 21.621C20.743 22.5 19.328 22.5 16.5 22.5H8.5C5.672 22.5 4.257 22.5 3.379 21.621C2.5 20.743 2.5 19.328 2.5 16.5Z" fill="white"/>
<path d="M7.25 8.5C7.25 7.10761 7.80312 5.77225 8.78769 4.78769C9.77225 3.80312 11.1076 3.25 12.5 3.25C13.8924 3.25 15.2277 3.80312 16.2123 4.78769C17.1969 5.77225 17.75 7.10761 17.75 8.5V10.504C18.317 10.509 18.814 10.522 19.25 10.554V8.5C19.25 6.70979 18.5388 4.9929 17.273 3.72703C16.0071 2.46116 14.2902 1.75 12.5 1.75C10.7098 1.75 8.9929 2.46116 7.72703 3.72703C6.46116 4.9929 5.75 6.70979 5.75 8.5V10.555C6.24933 10.5221 6.74959 10.5051 7.25 10.504V8.5Z" fill="white"/>
</svg>
